<?xml version="1.0" encoding="UTF-8"?>
<svg xmlns="http://www.w3.org/2000/svg" viewBox="-80 -80 820 820" width="660" height="660">
  <rect x="-80" y="-80" width="820" height="820" fill="#95AB4C"/>
  <g transform="translate(-84, -79)">
    <path d="M135,79 L693,79 C721.167,79 744,101.833 744,130 L744,688 C744,716.167 721.167,739 693,739 L135,739 C106.833,739 84,716.167 84,688 L84,130 C84,101.833 106.833,79 135,79 z" fill="#95AB4C"/>
    <path d="M237.778,612.333 L339.444,612.333 L339.444,442.889 L488.556,442.889 L488.556,612.333 L590.222,612.333 L590.222,348 L414,215.833 L237.778,348 L237.778,612.333 z M197.111,653 L197.111,327.667 L414,165 L630.889,327.667 L630.889,653 L447.889,653 L447.889,483.556 L380.111,483.556 L380.111,653 L197.111,653 z" fill="#FFFFFF"/>
  </g>
</svg>
